<svg width="48" height="48" viewBox="0 0 48 48" fill="none" xmlns="http://www.w3.org/2000/svg">
<path fill-rule="evenodd" clip-rule="evenodd" d="M24 6L33.5 14.4075V14.5L38 18.55L44 24H38V40H30V37H35V19.95L24 9.95L13 19.95V37H18V40H10V24H4L24 6Z" fill="black"/>
<path d="M24 29C24.55 29 25.021 28.804 25.413 28.412C25.8043 28.0207 26 27.55 26 27C26 26.45 25.8043 25.979 25.413 25.587C25.021 25.1957 24.55 25 24 25C23.45 25 22.9793 25.1957 22.588 25.587C22.196 25.979 22 26.45 22 27C22 27.55 22.196 28.0207 22.588 28.412C22.9793 28.804 23.45 29 24 29ZM24 36.35C26.0333 34.4833 27.5417 32.7873 28.525 31.262C29.5083 29.7373 30 28.3833 30 27.2C30 25.3833 29.4207 23.8957 28.262 22.737C27.104 21.579 25.6833 21 24 21C22.3167 21 20.8957 21.579 19.737 22.737C18.579 23.8957 18 25.3833 18 27.2C18 28.3833 18.4917 29.7373 19.475 31.262C20.4583 32.7873 21.9667 34.4833 24 36.35ZM24 39C21.3167 36.7167 19.3127 34.5957 17.988 32.637C16.6627 30.679 16 28.8667 16 27.2C16 24.7 16.8043 22.7083 18.413 21.225C20.021 19.7417 21.8833 19 24 19C26.1167 19 27.979 19.7417 29.587 21.225C31.1957 22.7083 32 24.7 32 27.2C32 28.8667 31.3377 30.679 30.013 32.637C28.6877 34.5957 26.6833 36.7167 24 39Z" fill="black"/>
</svg>
